<?xml version="1.0" encoding="UTF-8"?>
<svg xmlns="http://www.w3.org/2000/svg" viewBox="0 0 1200 630" width="1200" height="630">
  <defs>
    <linearGradient id="g51273" x1="73.47357813929453%" y1="5.852620357053645%" x2="26.526421860705472%" y2="94.14737964294636%">
      <stop offset="0%" stop-color="#059669"/>
      <stop offset="100%" stop-color="#047857"/>
    </linearGradient>
  </defs>
  <rect width="1200" height="630" fill="url(#g51273)"/>
  <polygon points="449.88242007791996,221.45105058327317 519.88242007792,181.45105058327317 589.88242007792,221.45105058327317 519.88242007792,261.4510505832732" fill="rgba(255,255,255,0.08)" stroke="rgba(255,255,255,0.15)" stroke-width="2"/><line x1="579.88242007792" y1="226.45105058327317" x2="579.88242007792" y2="281.4510505832732" stroke="rgba(255,255,255,0.12)" stroke-width="2"/><path d="M 853.9842521771789 370.344176935032 C 823.9842521771789 360.344176935032 773.9842521771789 365.344176935032 763.9842521771789 300.344176935032 L 853.9842521771789 310.344176935032 L 943.9842521771789 300.344176935032 C 933.9842521771789 365.344176935032 883.9842521771789 360.344176935032 853.9842521771789 370.344176935032 Z" fill="rgba(255,255,255,0.06)" stroke="rgba(255,255,255,0.12)" stroke-width="1.5"/><line x1="853.9842521771789" y1="370.344176935032" x2="853.9842521771789" y2="310.344176935032" stroke="rgba(255,255,255,0.12)" stroke-width="1.5"/><rect x="208.6210526060313" y="368.4287514165044" width="8" height="100" rx="1" fill="rgba(255,255,255,0.1)" transform="rotate(30.105655449442565 208.6210526060313 368.4287514165044)"/><circle cx="992.1440227422863" cy="221.84074079617858" r="30" fill="none" stroke="rgba(255,255,255,0.12)" stroke-width="2"/><line x1="982.1440227422863" y1="251.84074079617858" x2="1002.1440227422863" y2="251.84074079617858" stroke="rgba(255,255,255,0.1)" stroke-width="2"/><line x1="984.1440227422863" y1="258.8407407961786" x2="1000.1440227422863" y2="258.8407407961786" stroke="rgba(255,255,255,0.1)" stroke-width="2"/><circle cx="1114.6866275463253" cy="248.75158186769113" r="4.50841991789639" fill="rgba(255,255,255,0.10088131716474891)"/><circle cx="61.29366101231426" cy="337.75854284409434" r="2.7775395456701517" fill="rgba(255,255,255,0.05137563932687044)"/><circle cx="886.0900055384263" cy="440.59061664156616" r="4.492363357916474" fill="rgba(255,255,255,0.044074061568826435)"/><circle cx="595.2364481752738" cy="387.9092178749852" r="3.3024304639548063" fill="rgba(255,255,255,0.06465706957504153)"/><circle cx="175.95827518962324" cy="455.3564913151786" r="2.4797977171838284" fill="rgba(255,255,255,0.08161965686827899)"/><circle cx="71.24107875861228" cy="204.4829480187036" r="4.094785047695041" fill="rgba(255,255,255,0.06020931767299771)"/><circle cx="1127.7887899195775" cy="468.44686972210184" r="4.569449735805392" fill="rgba(255,255,255,0.09144362704828382)"/><circle cx="175.2357300138101" cy="482.6461423165165" r="5.768041322939098" fill="rgba(255,255,255,0.10525466986000537)"/><circle cx="429.08386616036296" cy="288.4975381405093" r="4.196569747291505" fill="rgba(255,255,255,0.0971980945393443)"/><circle cx="867.6537309540436" cy="271.8231032625772" r="5.880352764390409" fill="rgba(255,255,255,0.041525904461741446)"/><circle cx="540.8299801172689" cy="574.3258025846444" r="2.3306454671546817" fill="rgba(255,255,255,0.06321615858003497)"/><circle cx="1102.5254415348172" cy="406.9449825095944" r="2.41228340100497" fill="rgba(255,255,255,0.0804702327400446)"/><circle cx="890.85149820894" cy="441.3460278767161" r="5.244753775186837" fill="rgba(255,255,255,0.07356737518683076)"/><circle cx="495.862671895884" cy="107.83033219631761" r="2.3602370023727417" fill="rgba(255,255,255,0.09228296220302581)"/><circle cx="501.0262093041092" cy="66.61345418076962" r="3.3500702334567904" fill="rgba(255,255,255,0.08238149592652917)"/>
  <circle cx="1110.9582524746656" cy="376.5106836799532" r="1.0769743989221752" fill="rgba(255,255,255,0.057015041653066874)"/><circle cx="255.25974724441767" cy="229.39323563827202" r="1.2249738774262369" fill="rgba(255,255,255,0.032810967166442426)"/><circle cx="414.9558523669839" cy="170.22551280912012" r="2.834685992449522" fill="rgba(255,255,255,0.0694676669035107)"/><circle cx="739.0469835139811" cy="399.156246597413" r="1.4011899903416634" fill="rgba(255,255,255,0.06976202309131622)"/><circle cx="158.27162247151136" cy="488.6282134568319" r="2.5073028272017837" fill="rgba(255,255,255,0.053999053367879246)"/><circle cx="1010.3367766365409" cy="500.15119863208383" r="1.9738308363594115" fill="rgba(255,255,255,0.07101881294045598)"/><circle cx="817.7241764031351" cy="59.07101716613397" r="2.3457355233840644" fill="rgba(255,255,255,0.03369710972299799)"/><circle cx="199.8039823025465" cy="349.6956007182598" r="2.7294473564252257" fill="rgba(255,255,255,0.05790694329887629)"/><circle cx="379.45870449766517" cy="543.7755776150152" r="1.9517785334028304" fill="rgba(255,255,255,0.030479250168427823)"/><circle cx="794.1459794528782" cy="447.2665261127986" r="2.9542304915376008" fill="rgba(255,255,255,0.04641252270201221)"/><circle cx="197.14503111317754" cy="574.1445563617162" r="1.3287330586463213" fill="rgba(255,255,255,0.07279446287546307)"/><circle cx="1165.2755535207689" cy="580.9721514279954" r="1.5075236861594021" fill="rgba(255,255,255,0.0641299310559407)"/><circle cx="943.0725356563926" cy="154.375684610568" r="1.2039035586640239" fill="rgba(255,255,255,0.05920313243521377)"/><circle cx="657.2192938998342" cy="387.0429134834558" r="2.050480544567108" fill="rgba(255,255,255,0.051524131565820426)"/><circle cx="1101.7947748303413" cy="339.4613200589083" r="2.1433963710442185" fill="rgba(255,255,255,0.06316352665424346)"/><circle cx="684.2026893049479" cy="622.0404969505034" r="1.628885978832841" fill="rgba(255,255,255,0.04290186163969338)"/><circle cx="452.5786651298404" cy="23.866893737576902" r="1.4493025364354253" fill="rgba(255,255,255,0.06123193749925122)"/><circle cx="645.8824401721358" cy="496.9115052348934" r="1.5638572447933257" fill="rgba(255,255,255,0.07623835320817307)"/><circle cx="143.26933789998293" cy="596.7704141372815" r="2.9236020264215767" fill="rgba(255,255,255,0.07279674224089831)"/><circle cx="936.7517804726958" cy="191.49770927382633" r="1.9309859559871256" fill="rgba(255,255,255,0.07409026572247968)"/>
  <text x="600" y="335" font-family="system-ui, -apple-system, 'Segoe UI', sans-serif" font-size="68" font-weight="700" fill="rgba(0,0,0,0.15)" text-anchor="middle" letter-spacing="1">Testdaf</text>
  <text x="600" y="332" font-family="system-ui, -apple-system, 'Segoe UI', sans-serif" font-size="68" font-weight="700" fill="white" text-anchor="middle" letter-spacing="1">Testdaf</text>
  <g transform="translate(1140, 575)">
    <rect x="0" y="0" width="40" height="40" rx="8" fill="rgba(255,255,255,0.15)"/>
    <text x="20" y="29" font-family="sans-serif" font-weight="bold" font-size="24" fill="rgba(255,255,255,0.6)" text-anchor="middle">K</text>
  </g>
</svg>